<svg xmlns="http://www.w3.org/2000/svg" viewBox="0 0 108 108"><defs><style>.cls-1{fill:none;}.cls-2{fill:#F21A2C;}</style></defs><g id="Calque_2" data-name="Calque 2"><g id="Calque_1-2" data-name="Calque 1"><path class="cls-1" d="M79.81,81.13h-.09c-.13,0-.11.07.18.36l.27.28a.65.65,0,0,1,.12.2,1.17,1.17,0,0,0,.1.25c.33.76.41,1.2.27,1.54,0,.09-.17.27-.22.28s0,0-.1,0a1.22,1.22,0,0,0-.36-.14c-.25,0-.41,0-.47.21a1,1,0,0,0,0,.34.58.58,0,0,1,0,.33.92.92,0,0,1-.34.37.87.87,0,0,1-.46.11c-.37,0-.5-.32-.35-.72l.07-.21c0-.06.08-.33.15-.58a7.32,7.32,0,0,0,.25-1.08,2.14,2.14,0,0,0-.12-1.27l-.05-.08-.06.07a1.71,1.71,0,0,0-.36.78c0,.14-.09.36-.13.49a2.32,2.32,0,0,1-.33.8,3.22,3.22,0,0,0-.17.29A11.09,11.09,0,0,1,76.71,85a5.32,5.32,0,0,0-.91,1.48A1.33,1.33,0,0,0,76.18,88a1.14,1.14,0,0,0,.79.25h.19l.06.1a2.18,2.18,0,0,0,1.33,1,1.5,1.5,0,0,0,1.33-.65.81.81,0,0,0,.19-.25,2.7,2.7,0,0,0,.15-.82c0-.3.1-.44.22-.51a.6.6,0,0,1,.43,0,.46.46,0,0,0,.23,0,1.21,1.21,0,0,0,.66-.37,1.47,1.47,0,0,0,.1-.12,2.67,2.67,0,0,0,.22-.41,3.55,3.55,0,0,0,.2-1.41A4.42,4.42,0,0,0,81,82.12,7.89,7.89,0,0,0,79.81,81.13Z"/><path class="cls-1" d="M74,76.41a4.79,4.79,0,0,0,1.62.84,4.86,4.86,0,0,1,1.58.83c.5.38.65.47.72.39s0-.31-.09-.44a3.2,3.2,0,0,0-.68-.55c-.59-.39-.8-.63-.86-1a.55.55,0,0,1,0-.38.38.38,0,0,1,.38-.26,3.28,3.28,0,0,1,.38.08,1.83,1.83,0,0,0,.62.12.68.68,0,0,0,.37-.18,1,1,0,0,1,.77-.22.6.6,0,0,1,.29.26,2.92,2.92,0,0,1,.18,1.28v.31l0,0a.7.7,0,0,0,.32.09.68.68,0,0,0,.5-.3,3.87,3.87,0,0,0,.47-.76,6.87,6.87,0,0,1,.44-.72.75.75,0,0,0,.12-.21,1,1,0,0,1,.93-.56c.51.06.65.55.31,1.12a2.07,2.07,0,0,1-.26.33,4,4,0,0,1-.5.47,4.71,4.71,0,0,0-.75.74,2.17,2.17,0,0,0-.19.37.51.51,0,0,0,.16,0,5.84,5.84,0,0,0,2.4-1.36c.11-.1.53-.55.63-.67a6.69,6.69,0,0,0,.53-.81l.14-.24a1.83,1.83,0,0,0,.28-.89,2.88,2.88,0,0,0-.45-1.46l-.13-.23,0-.06a.65.65,0,0,0-.25-.86.88.88,0,0,0-1,.28c-.19.21-.33.27-.53.21a2,2,0,0,1-.45-.25l-.28-.17c-.43-.2-.78,0-1.08.62a2.94,2.94,0,0,0-.25,1.12c0,.2,0,1,.06,1.33,0,.15,0,.38,0,.52.05.66-.06,1.1-.33,1.31a1,1,0,0,1-.39.16h-.07l0-.14a4.46,4.46,0,0,1,.09-1.18,6.94,6.94,0,0,0,.2-1.68,1.39,1.39,0,0,0-.11-.58,1.44,1.44,0,0,0-.82-.85,1.24,1.24,0,0,0-.87,0c-.11,0-.11,0-.22.16a.76.76,0,0,1-1,.25,2.86,2.86,0,0,1-.41-.2,2.3,2.3,0,0,0-1-.37,1.51,1.51,0,0,0-1.36.7.81.81,0,0,0-.18.37,3.57,3.57,0,0,1-.4,1.25,3,3,0,0,0-.34,1.17.49.49,0,0,0,.13.38A2.29,2.29,0,0,0,74,76.41Z"/><path class="cls-1" d="M76.76,84.46A8.42,8.42,0,0,0,78,81.35c.06-.29.06-.31,0-.3a.8.8,0,0,0-.32.16,1.48,1.48,0,0,0-.37.49,3.47,3.47,0,0,1-.41.71,1.32,1.32,0,0,1-.17.17.78.78,0,0,1-.37.13h-.11l-.07-.08a2.36,2.36,0,0,1-.17-.26c-.15-.27-.23-.33-.38-.28a1,1,0,0,0-.37.22.83.83,0,0,1-.6.29.74.74,0,0,1-.57-.2.57.57,0,0,1-.18-.63.79.79,0,0,1,.23-.35A1.73,1.73,0,0,1,75,81c.35-.11.41-.14.47-.21s0-.16-.13-.29a1.12,1.12,0,0,1-.33-.34.44.44,0,0,1,0-.48,1.27,1.27,0,0,1,.94-.46.93.93,0,0,1,.66.17,1.5,1.5,0,0,0,.59.24c.29,0,.45,0,.47-.21a.9.9,0,0,0-.14-.37,4.81,4.81,0,0,0-.51-.49,5.65,5.65,0,0,0-1.81-.84,3.86,3.86,0,0,0-2.33.07,1.63,1.63,0,0,0-.69.45,2.06,2.06,0,0,0-.54,1.56,2.13,2.13,0,0,0,.22.9.52.52,0,0,1,0,.37,2.54,2.54,0,0,1-.5.85l-.27.39a1.39,1.39,0,0,0-.25.66,2.51,2.51,0,0,0,0,.85,2.43,2.43,0,0,0,.36.77,3.56,3.56,0,0,0,.45.42,1.62,1.62,0,0,0,.87.23,2.75,2.75,0,0,1,1.08.35,1.84,1.84,0,0,0,1.55.18,5.81,5.81,0,0,0,.86-.56A7,7,0,0,0,76.76,84.46Z"/><path class="cls-1" d="M87.53,82c-.14-.18-.15-.33-.07-.83a1.31,1.31,0,0,0,0-.76,1,1,0,0,0-.41-.42,3.4,3.4,0,0,0-1.2-.52,5,5,0,0,0-1.14-.09h-.28l0-.07a.27.27,0,0,0-.23-.18.68.68,0,0,1-.31-.14c-.16-.14,0-.43.25-.4a1.32,1.32,0,0,1,.56.36c.13.12.14.13.2.14H85a.11.11,0,0,0,.08-.07.42.42,0,0,0-.1-.43.28.28,0,0,0-.27-.09.25.25,0,0,1-.3-.11.43.43,0,0,1,.17-.38.39.39,0,0,1,.29,0,.88.88,0,0,1,.35.21.4.4,0,0,0,.18.12.2.2,0,0,0,.28-.18c0-.25-.17-.45-.39-.35a.2.2,0,0,1-.29-.2,1.26,1.26,0,0,1,.38-.5.41.41,0,0,1,.54,0c.07.06.08.08.09.14,0,.25.25.42.39.31a.77.77,0,0,0,.16-.34c0-.1,0-.15-.13-.32s-.14-.3-.07-.49a.34.34,0,0,0,0-.33c-.06-.08-.13-.12-.43-.26l-.17-.08,0-.09c-.06-.16-.13-.21-.24-.21a.77.77,0,0,0-.34.11.47.47,0,0,1-.32.09.3.3,0,0,0-.25.22.39.39,0,0,0,0,.14l0,.09.24.23c.21.21.24.23.26.29a.55.55,0,0,1,0,.37c-.11.33-.21.51-.35.56s-.14,0-.17,0,0-.11,0-.28.06-.31,0-.39a.26.26,0,0,0-.4,0,.86.86,0,0,0,.16.59.42.42,0,0,1,.09.31c0,.26-.29.48-.45.38s0,0,0-.11a.65.65,0,0,0-.2-.66.27.27,0,0,0-.25,0,.32.32,0,0,0,0,.33s.07.15.12.24a.62.62,0,0,1,.12.33c0,.13-.08.18-.48.34a5.81,5.81,0,0,1-2.25.33,5.06,5.06,0,0,1-.88-.07,2.4,2.4,0,0,0-.77,0,.41.41,0,0,0-.4.23.72.72,0,0,0,0,.67.48.48,0,0,0,.29.25,3.89,3.89,0,0,0,2.23.07,4.64,4.64,0,0,0,1.69-.76.51.51,0,0,1,.62-.08.35.35,0,0,1,.14.13.57.57,0,0,1,.07.12s0,0-.18.06a7.27,7.27,0,0,0-1.47.44c-.43.17-.42.17-.51.27s-.11.15,0,.21.26.1.74.13c.69,0,.77.06,1,.16l.48.23a2.82,2.82,0,0,1,.77.43.67.67,0,0,1,.24.65l0,.09-.1.09a1,1,0,0,1-.84.24,2.9,2.9,0,0,1-1-.37l-.42-.21a2.39,2.39,0,0,1-.57-.32,2.47,2.47,0,0,0-.69-.37.39.39,0,0,0-.34,0c-.06,0-.12.09-.11.1l.17.13A5.74,5.74,0,0,1,82.44,83a4.41,4.41,0,0,1,.24.51,3.05,3.05,0,0,0,.75,1.23,1.48,1.48,0,0,0,.63.36l.25.07A.69.69,0,0,0,85,85a3.35,3.35,0,0,0,.32-.3,2,2,0,0,1,.54-.44.79.79,0,0,1,.44,0,1.32,1.32,0,0,0,.44,0,1.5,1.5,0,0,0,.8-.43l.14-.16.07-.11a1.25,1.25,0,0,0,.1-1.27.25.25,0,0,0-.13-.14A.44.44,0,0,1,87.53,82Z"/><path class="cls-2" d="M39.21,7.74l42.3,0A53.76,53.76,0,0,0,19,94.82c7.36-7.55,15.67-18.24,20.65-31.3H12.54V39.66h34.2c.63-2.6,1.22-5.25,1.75-8l-23.87-.07Z"/><path class="cls-2" d="M51.35,107.73c.9,0,1.74.27,2.65.27a53.45,53.45,0,0,0,16.31-2.78H52.47C52.09,106,51.75,107,51.35,107.73Z"/><path class="cls-2" d="M103,31.65l-35.37.05q-.24,4.06-.56,8h33.5L90.5,63.52h-26a173.56,173.56,0,0,1-7.74,31.3H89a53.14,53.14,0,0,0,14-63.17ZM73.8,74.38a3.57,3.57,0,0,0,.4-1.25.81.81,0,0,1,.18-.37,1.51,1.51,0,0,1,1.36-.7,2.3,2.3,0,0,1,1,.37,2.86,2.86,0,0,0,.41.2.76.76,0,0,0,1-.25c.11-.11.11-.12.22-.16a1.24,1.24,0,0,1,.87,0,1.44,1.44,0,0,1,.82.85,1.39,1.39,0,0,1,.11.58,6.94,6.94,0,0,1-.2,1.68,4.46,4.46,0,0,0-.09,1.18l0,.14h.07a1,1,0,0,0,.39-.16c.27-.21.38-.65.33-1.31,0-.14,0-.37,0-.52,0-.37-.07-1.13-.06-1.33a2.94,2.94,0,0,1,.25-1.12c.3-.62.65-.82,1.08-.62l.28.17a2,2,0,0,0,.45.25c.2.06.34,0,.53-.21a.88.88,0,0,1,1-.28.65.65,0,0,1,.25.86l0,.06.13.23a2.88,2.88,0,0,1,.45,1.46,1.83,1.83,0,0,1-.28.89l-.14.24a6.69,6.69,0,0,1-.53.81c-.1.12-.52.57-.63.67a5.84,5.84,0,0,1-2.4,1.36.51.51,0,0,1-.16,0,2.17,2.17,0,0,1,.19-.37,4.71,4.71,0,0,1,.75-.74,4,4,0,0,0,.5-.47,2.07,2.07,0,0,0,.26-.33c.34-.57.2-1.06-.31-1.12a1,1,0,0,0-.93.56.75.75,0,0,1-.12.21,6.87,6.87,0,0,0-.44.72,3.87,3.87,0,0,1-.47.76.68.68,0,0,1-.5.3.7.7,0,0,1-.32-.09l0,0v-.31a2.92,2.92,0,0,0-.18-1.28.6.6,0,0,0-.29-.26,1,1,0,0,0-.77.22.68.68,0,0,1-.37.18,1.83,1.83,0,0,1-.62-.12,3.28,3.28,0,0,0-.38-.08.38.38,0,0,0-.38.26.55.55,0,0,0,0,.38c.06.36.27.6.86,1a3.2,3.2,0,0,1,.68.55c.1.13.15.37.09.44s-.22,0-.72-.39a4.86,4.86,0,0,0-1.58-.83A4.79,4.79,0,0,1,74,76.41a2.29,2.29,0,0,1-.43-.48.49.49,0,0,1-.13-.38A3,3,0,0,1,73.8,74.38Zm-.17,11.21a2.75,2.75,0,0,0-1.08-.35,1.62,1.62,0,0,1-.87-.23,3.56,3.56,0,0,1-.45-.42,2.43,2.43,0,0,1-.36-.77,2.51,2.51,0,0,1,0-.85,1.39,1.39,0,0,1,.25-.66l.27-.39a2.54,2.54,0,0,0,.5-.85.52.52,0,0,0,0-.37,2.13,2.13,0,0,1-.22-.9,2.06,2.06,0,0,1,.54-1.56,1.63,1.63,0,0,1,.69-.45,3.86,3.86,0,0,1,2.33-.07,5.65,5.65,0,0,1,1.81.84,4.81,4.81,0,0,1,.51.49.9.9,0,0,1,.14.37c0,.17-.18.24-.47.21a1.5,1.5,0,0,1-.59-.24.93.93,0,0,0-.66-.17,1.27,1.27,0,0,0-.94.46.44.44,0,0,0,0,.48,1.12,1.12,0,0,0,.33.34c.18.13.21.2.13.29s-.12.1-.47.21a1.73,1.73,0,0,0-.81.43.79.79,0,0,0-.23.35.57.57,0,0,0,.18.63.74.74,0,0,0,.57.2.83.83,0,0,0,.6-.29,1,1,0,0,1,.37-.22c.15,0,.23,0,.38.28a2.36,2.36,0,0,0,.17.26l.07.08h.11a.78.78,0,0,0,.37-.13,1.32,1.32,0,0,0,.17-.17,3.47,3.47,0,0,0,.41-.71,1.48,1.48,0,0,1,.37-.49.8.8,0,0,1,.32-.16s0,0,0,.3a8.42,8.42,0,0,1-1.23,3.11,7,7,0,0,1-.72.75,5.81,5.81,0,0,1-.86.56A1.84,1.84,0,0,1,73.63,85.59Zm8.45.61a2.67,2.67,0,0,1-.22.41,1.47,1.47,0,0,1-.1.12,1.21,1.21,0,0,1-.66.37.46.46,0,0,1-.23,0,.6.6,0,0,0-.43,0c-.12.07-.18.21-.22.51a2.7,2.7,0,0,1-.15.82.81.81,0,0,1-.19.25,1.5,1.5,0,0,1-1.33.65,2.18,2.18,0,0,1-1.33-1l-.06-.1H77a1.14,1.14,0,0,1-.79-.25,1.33,1.33,0,0,1-.38-1.43A5.32,5.32,0,0,1,76.71,85a11.09,11.09,0,0,0,.87-1.32,3.22,3.22,0,0,1,.17-.29,2.32,2.32,0,0,0,.33-.8c0-.13.1-.35.13-.49a1.71,1.71,0,0,1,.36-.78l.06-.07.05.08a2.14,2.14,0,0,1,.12,1.27,7.32,7.32,0,0,1-.25,1.08c-.07.25-.14.52-.15.58l-.07.21c-.15.4,0,.69.35.72a.87.87,0,0,0,.46-.11.92.92,0,0,0,.34-.37.58.58,0,0,0,0-.33,1,1,0,0,1,0-.34c.06-.17.22-.25.47-.21a1.22,1.22,0,0,1,.36.14s.08,0,.1,0,.18-.19.22-.28c.14-.34.06-.78-.27-1.54a1.17,1.17,0,0,1-.1-.25.65.65,0,0,0-.12-.2l-.27-.28c-.29-.29-.31-.34-.18-.36h.09a7.89,7.89,0,0,1,1.16,1,4.42,4.42,0,0,1,1.31,2.67A3.55,3.55,0,0,1,82.08,86.2Zm5.63-2.66-.07.11-.14.16a1.5,1.5,0,0,1-.8.43,1.32,1.32,0,0,1-.44,0,.79.79,0,0,0-.44,0,2,2,0,0,0-.54.44A3.35,3.35,0,0,1,85,85a.69.69,0,0,1-.65.1l-.25-.07a1.48,1.48,0,0,1-.63-.36,3.05,3.05,0,0,1-.75-1.23,4.41,4.41,0,0,0-.24-.51A5.74,5.74,0,0,0,81,81.42l-.17-.13s0-.07.11-.1a.39.39,0,0,1,.34,0,2.47,2.47,0,0,1,.69.37,2.39,2.39,0,0,0,.57.32l.42.21a2.9,2.9,0,0,0,1,.37,1,1,0,0,0,.84-.24l.1-.09,0-.09a.67.67,0,0,0-.24-.65,2.82,2.82,0,0,0-.77-.43l-.48-.23c-.18-.1-.26-.11-1-.16-.48,0-.66-.06-.74-.13s0-.1,0-.21.08-.1.51-.27a7.27,7.27,0,0,1,1.47-.44c.15,0,.18-.05.18-.06a.57.57,0,0,0-.07-.12.35.35,0,0,0-.14-.13.51.51,0,0,0-.62.08,4.64,4.64,0,0,1-1.69.76A3.89,3.89,0,0,1,79.16,80a.48.48,0,0,1-.29-.25.72.72,0,0,1,0-.67.41.41,0,0,1,.4-.23,2.4,2.4,0,0,1,.77,0,5.06,5.06,0,0,0,.88.07,5.81,5.81,0,0,0,2.25-.33c.4-.16.48-.21.48-.34a.62.62,0,0,0-.12-.33c0-.09-.1-.2-.12-.24a.32.32,0,0,1,0-.33.27.27,0,0,1,.25,0,.65.65,0,0,1,.2.66c0,.08,0,.09,0,.11s.42-.12.45-.38a.42.42,0,0,0-.09-.31.86.86,0,0,1-.16-.59.26.26,0,0,1,.4,0c.09.08.1.15,0,.39s0,.22,0,.28.08.07.17,0,.24-.23.35-.56a.55.55,0,0,0,0-.37c0-.06,0-.08-.26-.29l-.24-.23,0-.09a.39.39,0,0,1,0-.14.3.3,0,0,1,.25-.22.47.47,0,0,0,.32-.09.77.77,0,0,1,.34-.11c.11,0,.18,0,.24.21l0,.09.17.08c.3.14.37.18.43.26a.34.34,0,0,1,0,.33c-.07.19-.06.26.07.49s.13.22.13.32a.77.77,0,0,1-.16.34c-.14.11-.35-.06-.39-.31,0-.06,0-.08-.09-.14a.41.41,0,0,0-.54,0,1.26,1.26,0,0,0-.38.5.2.2,0,0,0,.29.2c.22-.1.43.1.39.35a.2.2,0,0,1-.28.18.4.4,0,0,1-.18-.12.88.88,0,0,0-.35-.21.39.39,0,0,0-.29,0,.43.43,0,0,0-.17.38.25.25,0,0,0,.3.11.28.28,0,0,1,.27.09.42.42,0,0,1,.1.43.11.11,0,0,1-.08.07h-.11c-.06,0-.07,0-.2-.14a1.32,1.32,0,0,0-.56-.36c-.23,0-.41.26-.25.4a.68.68,0,0,0,.31.14.27.27,0,0,1,.23.18l0,.07h.28a5,5,0,0,1,1.14.09,3.4,3.4,0,0,1,1.2.52,1,1,0,0,1,.41.42,1.31,1.31,0,0,1,0,.76c-.08.5-.07.65.07.83a.44.44,0,0,0,.15.12.25.25,0,0,1,.13.14A1.25,1.25,0,0,1,87.71,83.54Z"/><path class="cls-2" d="M54.07,101.65H78.9a56.27,56.27,0,0,0,5.77-3.26H55.52C55.07,99.54,54.54,100.55,54.07,101.65Z"/></g></g></svg>